<?xml version="1.0" encoding="UTF-8"?>
<!DOCTYPE svg PUBLIC "-//W3C//DTD SVG 1.1//EN" "http://www.w3.org/Graphics/SVG/1.1/DTD/svg11.dtd">
<svg xmlns="http://www.w3.org/2000/svg" version="1.1" width="3113px" height="760px" style="shape-rendering:geometricPrecision; text-rendering:geometricPrecision; image-rendering:optimizeQuality; fill-rule:evenodd; clip-rule:evenodd" xmlns:xlink="http://www.w3.org/1999/xlink">
<g><path style="opacity:0.987" fill="#000000" d="M 398.5,47.5 C 422.502,47.3334 446.502,47.5 470.5,48C 480.364,49.5308 486.864,55.0308 490,64.5C 490.667,208.5 490.667,352.5 490,496.5C 487.833,505.333 482.333,510.833 473.5,513C 457.5,513.667 441.5,513.667 425.5,513C 415.925,510.423 410.091,504.257 408,494.5C 407.667,453.5 407.333,412.5 407,371.5C 406.5,371 406,370.5 405.5,370C 384.167,369.667 362.833,369.333 341.5,369C 328.12,365.741 321.953,357.241 323,343.5C 323.774,339.951 325.107,336.618 327,333.5C 339.806,316.726 352.973,300.226 366.5,284C 370.069,281.477 374.069,280.144 378.5,280C 388.257,280.127 397.757,279.294 407,277.5C 407.333,246.833 407.667,216.167 408,185.5C 408.333,183.833 408.667,182.167 409,180.5C 414.413,170.006 420.079,159.673 426,149.5C 427.833,141.333 424.667,138.167 416.5,140C 414.91,141.046 413.41,142.213 412,143.5C 403.916,156.67 395.583,169.67 387,182.5C 303.667,289.833 220.333,397.167 137,504.5C 133.35,508.739 128.85,511.572 123.5,513C 103.833,513.667 84.1667,513.667 64.5,513C 51.0354,507.572 45.8687,497.739 49,483.5C 50.0804,481.004 51.4138,478.67 53,476.5C 161.667,336.5 270.333,196.5 379,56.5C 384.311,50.6846 390.811,47.6846 398.5,47.5 Z"/></g>
<g><path style="opacity:0.989" fill="#000000" d="M 1275.5,47.5 C 1299.5,47.3334 1323.5,47.5 1347.5,48C 1356.41,49.3688 1362.58,54.2021 1366,62.5C 1367.49,145.464 1367.99,228.464 1367.5,311.5C 1368.68,311.719 1369.68,311.386 1370.5,310.5C 1412,225.5 1453.5,140.5 1495,55.5C 1500.01,50.2711 1506.18,47.7711 1513.5,48C 1547.5,47.3333 1581.5,47.3333 1615.5,48C 1624.92,49.4095 1631.42,54.5761 1635,63.5C 1635.67,208.167 1635.67,352.833 1635,497.5C 1632.93,504.573 1628.43,509.406 1621.5,512C 1604.57,513.624 1587.57,513.957 1570.5,513C 1562.07,510.905 1556.57,505.739 1554,497.5C 1553.08,390.834 1552.75,284.167 1553,177.5C 1554.43,167.597 1556.27,157.763 1558.5,148C 1558.09,140.304 1554.43,137.971 1547.5,141C 1545.62,143.251 1544.12,145.751 1543,148.5C 1540.27,159.03 1536.93,169.363 1533,179.5C 1479.47,287.746 1426.14,396.08 1373,504.5C 1369.69,509.239 1365.19,512.072 1359.5,513C 1340.17,513.667 1320.83,513.667 1301.5,513C 1292.67,510.833 1287.17,505.333 1285,496.5C 1284.33,391.833 1284.33,287.167 1285,182.5C 1290.74,170.677 1296.74,159.01 1303,147.5C 1302.9,139.515 1299.07,137.348 1291.5,141C 1281.67,155.5 1271.83,170 1262,184.5C 1178.5,292 1095,399.5 1011.5,507C 1007.82,510.34 1003.48,512.34 998.5,513C 980.167,513.667 961.833,513.667 943.5,513C 929.497,509.174 923.331,500.007 925,485.5C 926.223,481.385 928.223,477.718 931,474.5C 1039.05,336.119 1146.72,197.453 1254,58.5C 1259.28,50.9426 1266.45,47.2759 1275.5,47.5 Z"/></g>
<g><path style="opacity:0.973" fill="#000000" d="M 2052.5,72.5 C 2068.17,72.3334 2083.84,72.5001 2099.5,73C 2107.77,73.9409 2112.94,78.4409 2115,86.5C 2115.67,103.833 2115.67,121.167 2115,138.5C 2112.71,146.897 2107.21,151.397 2098.5,152C 2083.5,152.667 2068.5,152.667 2053.5,152C 2044.79,151.397 2039.29,146.897 2037,138.5C 2036.33,121.167 2036.33,103.833 2037,86.5C 2039.26,78.475 2044.43,73.8084 2052.5,72.5 Z"/></g>
<g><path style="opacity:0.988" fill="#000000" d="M 831.5,101.5 C 848.837,101.333 866.17,101.5 883.5,102C 890.237,103.736 894.737,107.903 897,114.5C 897.333,135.167 897.667,155.833 898,176.5C 900.167,182.667 904.333,186.833 910.5,189C 930.833,189.333 951.167,189.667 971.5,190C 978.262,191.763 982.762,195.93 985,202.5C 985.667,216.833 985.667,231.167 985,245.5C 982.928,253.573 977.761,258.073 969.5,259C 947.833,259.333 926.167,259.667 904.5,260C 901.667,261.5 899.5,263.667 898,266.5C 897.667,344.5 897.333,422.5 897,500.5C 894.833,506.667 890.667,510.833 884.5,513C 866.833,513.667 849.167,513.667 831.5,513C 826.475,511.311 822.641,508.144 820,503.5C 818.675,424.89 818.009,346.224 818,267.5C 816.895,264.063 814.728,261.563 811.5,260C 799.5,259.667 787.5,259.333 775.5,259C 767.226,258.059 762.06,253.559 760,245.5C 759.333,231.5 759.333,217.5 760,203.5C 761.833,196.333 766.333,191.833 773.5,190C 784.167,189.667 794.833,189.333 805.5,189C 812.097,186.737 816.264,182.237 818,175.5C 818.333,155.167 818.667,134.833 819,114.5C 821.353,108.315 825.52,103.982 831.5,101.5 Z"/></g>
<g><path style="opacity:0.985" fill="#000000" d="M 1837.5,184.5 C 1866.37,183.108 1894.37,187.274 1921.5,197C 1946.73,208.559 1964.89,227.059 1976,252.5C 1983.65,272.112 1987.99,292.445 1989,313.5C 1989.67,375.833 1989.67,438.167 1989,500.5C 1987.31,505.525 1984.14,509.359 1979.5,512C 1960.9,513.628 1942.23,513.961 1923.5,513C 1917.31,510.807 1913.14,506.641 1911,500.5C 1909.55,488.183 1910.88,476.183 1915,464.5C 1918.33,458.839 1920.83,452.839 1922.5,446.5C 1919.3,439.138 1915.46,438.805 1911,445.5C 1894.32,490.17 1862.15,514.337 1814.5,518C 1773.37,522.359 1737.87,510.525 1708,482.5C 1685.92,456.37 1679.58,426.703 1689,393.5C 1697.82,364.678 1716.32,344.845 1744.5,334C 1761,328.033 1778,324.367 1795.5,323C 1822.86,322.137 1850.19,320.803 1877.5,319C 1911.65,314.636 1919.81,297.47 1902,267.5C 1890.5,256.435 1876.67,250.602 1860.5,250C 1840.24,247.661 1820.57,249.994 1801.5,257C 1786.49,264.347 1776.99,276.18 1773,292.5C 1770.9,295.467 1768.07,297.3 1764.5,298C 1746.17,298.667 1727.83,298.667 1709.5,298C 1698.54,293.576 1695.37,285.743 1700,274.5C 1714.97,232.2 1744.14,205.033 1787.5,193C 1804.04,188.522 1820.7,185.689 1837.5,184.5 Z M 1894.5,359.5 C 1906.48,358.995 1910.98,364.662 1908,376.5C 1896.57,434.25 1861.41,461.75 1802.5,459C 1773.46,453.649 1761.3,436.482 1766,407.5C 1768.35,398.295 1773.52,391.128 1781.5,386C 1787.7,382.238 1794.36,379.572 1801.5,378C 1821.15,375.252 1840.82,372.585 1860.5,370C 1872.52,368.334 1883.86,364.834 1894.5,359.5 Z"/></g>
<g><path style="opacity:0.986" fill="#000000" d="M 2310.5,184.5 C 2352.79,182.311 2390.46,194.144 2423.5,220C 2452.25,246.85 2468.42,280.017 2472,319.5C 2473.38,332.809 2473.71,346.142 2473,359.5C 2472.85,364.981 2470.35,368.815 2465.5,371C 2391.17,371.333 2316.83,371.667 2242.5,372C 2239.52,373.145 2237.86,375.312 2237.5,378.5C 2247.19,424.012 2275.35,447.679 2322,449.5C 2352.99,449.352 2374.32,435.019 2386,406.5C 2388.44,404.031 2391.27,402.198 2394.5,401C 2413.17,400.333 2431.83,400.333 2450.5,401C 2459.96,405.09 2463.8,412.257 2462,422.5C 2441.33,480.61 2400.16,512.443 2338.5,518C 2304.42,521.038 2271.76,515.704 2240.5,502C 2197.22,479.013 2171.39,443.179 2163,394.5C 2157.28,360.537 2158.61,326.871 2167,293.5C 2183.88,239.284 2219.72,204.784 2274.5,190C 2286.54,187.448 2298.54,185.614 2310.5,184.5 Z M 2309.5,249.5 C 2331.46,246.787 2351.46,251.621 2369.5,264C 2384.85,277.523 2392.35,294.356 2392,314.5C 2391.5,315 2391,315.5 2390.5,316C 2341.83,316.667 2293.17,316.667 2244.5,316C 2242.85,314.53 2241.85,312.697 2241.5,310.5C 2250.38,274.617 2273.04,254.284 2309.5,249.5 Z"/></g>
<g><path style="opacity:0.988" fill="#000000" d="M 3044.5,184.5 C 3053.23,184.611 3059.39,188.611 3063,196.5C 3063.67,215.167 3063.67,233.833 3063,252.5C 3060.83,257.333 3057.33,260.833 3052.5,263C 3038.48,263.987 3024.48,265.32 3010.5,267C 2979.79,272.71 2960.29,290.543 2952,320.5C 2949.31,331.681 2947.64,343.014 2947,354.5C 2946.67,402.833 2946.33,451.167 2946,499.5C 2944.17,506.667 2939.67,511.167 2932.5,513C 2914.1,513.96 2895.77,513.627 2877.5,512C 2872.86,509.359 2869.69,505.525 2868,500.5C 2867.33,401.167 2867.33,301.833 2868,202.5C 2870.17,196.333 2874.33,192.167 2880.5,190C 2898.17,189.333 2915.83,189.333 2933.5,190C 2942.6,193.518 2946.93,200.184 2946.5,210C 2946.16,215.901 2945.32,221.735 2944,227.5C 2941.14,235.871 2938.31,244.205 2935.5,252.5C 2937.47,259.529 2940.97,260.196 2946,254.5C 2951.96,239.229 2959.96,225.229 2970,212.5C 2980.96,201.227 2994.13,193.727 3009.5,190C 3021.2,187.418 3032.86,185.584 3044.5,184.5 Z"/></g>
<g><path style="opacity:0.987" fill="#000000" d="M 704.5,185.5 C 710.176,185.334 715.843,185.501 721.5,186C 728.873,188.58 733.04,193.746 734,201.5C 734.167,209.333 734.333,217.167 734.5,225C 734.61,234.224 734.11,243.391 733,252.5C 730.616,258.275 726.449,262.108 720.5,264C 701.046,263.578 682.046,266.245 663.5,272C 638.466,283.053 623.966,302.22 620,329.5C 618.507,338.109 617.507,346.776 617,355.5C 616.986,404.892 616.319,454.225 615,503.5C 612.359,508.144 608.525,511.311 603.5,513C 584.768,513.961 566.101,513.628 547.5,512C 542.856,509.359 539.689,505.525 538,500.5C 537.333,401.167 537.333,301.833 538,202.5C 540.263,195.903 544.763,191.736 551.5,190C 568.167,189.333 584.833,189.333 601.5,190C 612.203,192.548 617.203,199.381 616.5,210.5C 615.806,223.945 612.306,236.612 606,248.5C 603.904,257.416 606.904,260.083 615,256.5C 622.296,236.722 633.463,219.555 648.5,205C 655.225,199.969 662.558,195.969 670.5,193C 681.781,189.646 693.114,187.146 704.5,185.5 Z"/></g>
<g><path style="opacity:0.985" fill="#000000" d="M 2529.5,189.5 C 2546.84,189.333 2564.17,189.5 2581.5,190C 2587.5,191.336 2591.67,194.836 2594,200.5C 2595.32,259.455 2595.98,318.455 2596,377.5C 2596.37,396.268 2601.37,413.601 2611,429.5C 2622.44,441.708 2636.61,447.375 2653.5,446.5C 2678.71,444.811 2698.87,433.811 2714,413.5C 2730.78,388.834 2739.78,361.5 2741,331.5C 2741.33,288.5 2741.67,245.5 2742,202.5C 2744.17,196.333 2748.33,192.167 2754.5,190C 2772.17,189.333 2789.83,189.333 2807.5,190C 2814.1,192.263 2818.26,196.763 2820,203.5C 2820.67,302.167 2820.67,400.833 2820,499.5C 2818.17,506.667 2813.67,511.167 2806.5,513C 2789.17,513.667 2771.83,513.667 2754.5,513C 2748.31,510.807 2744.14,506.641 2742,500.5C 2740.82,488.313 2741.82,476.313 2745,464.5C 2748.45,455.932 2751.62,447.265 2754.5,438.5C 2751.59,432.71 2747.76,432.043 2743,436.5C 2729.91,465.253 2710.08,488.087 2683.5,505C 2645.57,523.338 2607.9,522.672 2570.5,503C 2544.21,485.295 2527.71,460.795 2521,429.5C 2519.11,420.92 2517.77,412.253 2517,403.5C 2515.4,337.845 2515.07,272.179 2516,206.5C 2517.21,198.031 2521.71,192.365 2529.5,189.5 Z"/></g>
<g><path style="opacity:0.988" fill="#000000" d="M 2049.5,190.5 C 2067.17,190.333 2084.84,190.5 2102.5,191C 2108.67,193.167 2112.83,197.333 2115,203.5C 2115.67,318.167 2115.67,432.833 2115,547.5C 2113.26,600.908 2085.76,628.742 2032.5,631C 2012.5,631.667 1992.5,631.667 1972.5,631C 1966.16,629.325 1961.66,625.492 1959,619.5C 1958.33,604.5 1958.33,589.5 1959,574.5C 1961.48,567.025 1966.64,562.858 1974.5,562C 1990.54,561.922 2006.54,561.255 2022.5,560C 2029.52,557.648 2033.68,552.815 2035,545.5C 2036.32,431.523 2036.98,317.523 2037,203.5C 2039.35,197.315 2043.52,192.982 2049.5,190.5 Z"/></g>
<g><path style="opacity:0.949" fill="#000000" d="M 2167.5,550.5 C 2172.18,550.334 2176.85,550.501 2181.5,551C 2182.33,551.833 2183.17,552.667 2184,553.5C 2184.67,563.5 2184.67,573.5 2184,583.5C 2182.97,586.509 2182.31,589.509 2182,592.5C 2193.21,575.921 2207.71,572.421 2225.5,582C 2238.39,593.683 2243.22,608.183 2240,625.5C 2235.46,646.343 2222.62,655.843 2201.5,654C 2193.01,652.016 2186.68,647.182 2182.5,639.5C 2182.17,639.833 2181.83,640.167 2181.5,640.5C 2183.79,644.312 2184.46,648.312 2183.5,652.5C 2178.2,653.663 2172.86,653.829 2167.5,653C 2167,652.5 2166.5,652 2166,651.5C 2165.33,618.5 2165.33,585.5 2166,552.5C 2166.72,551.956 2167.22,551.289 2167.5,550.5 Z M 2197.5,594.5 C 2209.73,591.917 2217.57,596.583 2221,608.5C 2223.22,618.239 2221.05,626.739 2214.5,634C 2200.03,640.681 2190.2,636.515 2185,621.5C 2182.73,609.384 2186.89,600.384 2197.5,594.5 Z"/></g>
<g><path style="opacity:0.961" fill="#000000" d="M 2353.5,550.5 C 2362.28,550.059 2370.94,550.559 2379.5,552C 2392.78,566.739 2405.95,581.573 2419,596.5C 2419.67,598.833 2419.67,601.167 2419,603.5C 2417.3,605.56 2416.14,607.893 2415.5,610.5C 2415.56,611.737 2416.06,612.737 2417,613.5C 2432.46,592.768 2448.29,572.268 2464.5,552C 2472.4,550.399 2480.4,550.066 2488.5,551C 2494.39,554.319 2495.55,558.819 2492,564.5C 2453.83,613.333 2415.67,662.167 2377.5,711C 2369.17,711.667 2360.83,711.667 2352.5,711C 2348.79,708.398 2347.62,704.898 2349,700.5C 2368.02,676.31 2386.86,651.976 2405.5,627.5C 2387.19,606.019 2368.69,584.686 2350,563.5C 2347.35,558.039 2348.51,553.706 2353.5,550.5 Z"/></g>
<g><path style="opacity:0.964" fill="#000000" d="M 2859.5,550.5 C 2869.58,550.077 2879.58,550.577 2889.5,552C 2891.05,553.214 2892.22,554.714 2893,556.5C 2893.99,607.225 2893.65,657.892 2892,708.5C 2891.17,709.333 2890.33,710.167 2889.5,711C 2881.73,711.931 2874.06,711.598 2866.5,710C 2865.87,709.25 2865.37,708.416 2865,707.5C 2864.67,692.833 2864.33,678.167 2864,663.5C 2856.25,662.683 2848.41,662.183 2840.5,662C 2834.91,659.322 2833.41,655.155 2836,649.5C 2840.48,643.39 2845.31,637.557 2850.5,632C 2855.07,630.691 2859.73,630.191 2864.5,630.5C 2864.33,618.829 2864.5,607.162 2865,595.5C 2867.22,592.221 2869.06,588.721 2870.5,585C 2869.59,582.127 2868.09,581.96 2866,584.5C 2862,590.5 2858,596.5 2854,602.5C 2826.05,638.243 2798.21,674.076 2770.5,710C 2761.94,711.607 2753.27,711.94 2744.5,711C 2741.4,709.732 2739.73,707.399 2739.5,704C 2740.14,700.695 2741.64,697.862 2744,695.5C 2778.67,650.833 2813.33,606.167 2848,561.5C 2851.09,556.902 2854.93,553.235 2859.5,550.5 Z"/></g>
<g><path style="opacity:0.96" fill="#000000" d="M 3009.5,569.5 C 3016.17,569.334 3022.84,569.5 3029.5,570C 3030.93,570.465 3032.1,571.299 3033,572.5C 3033.33,580.5 3033.67,588.5 3034,596.5C 3034.83,597.333 3035.67,598.167 3036.5,599C 3044.17,599.333 3051.83,599.667 3059.5,600C 3060.93,600.465 3062.1,601.299 3063,602.5C 3063.67,608.833 3063.67,615.167 3063,621.5C 3062.5,622 3062,622.5 3061.5,623C 3053.27,624.273 3044.94,624.94 3036.5,625C 3035.67,625.833 3034.83,626.667 3034,627.5C 3033.33,646.167 3033.33,664.833 3034,683.5C 3034.5,685.333 3035.67,686.5 3037.5,687C 3044.83,687.333 3052.17,687.667 3059.5,688C 3060.93,688.465 3062.1,689.299 3063,690.5C 3063.67,696.833 3063.67,703.167 3063,709.5C 3062.1,710.701 3060.93,711.535 3059.5,712C 3047.06,713.047 3034.72,712.381 3022.5,710C 3011.56,705.69 3006.06,697.523 3006,685.5C 3005.67,666.167 3005.33,646.833 3005,627.5C 3004.17,626.667 3003.33,625.833 3002.5,625C 2997.39,624.891 2992.39,624.224 2987.5,623C 2986.87,622.25 2986.37,621.416 2986,620.5C 2985.33,614.833 2985.33,609.167 2986,603.5C 2986.37,602.584 2986.87,601.75 2987.5,601C 2992.39,599.776 2997.39,599.109 3002.5,599C 3003.31,598.692 3003.97,598.192 3004.5,597.5C 3005.3,589.549 3005.8,581.549 3006,573.5C 3006.69,571.65 3007.86,570.316 3009.5,569.5 Z"/></g>
<g><path style="opacity:0.945" fill="#000000" d="M 2244.5,578.5 C 2249.84,578.334 2255.18,578.501 2260.5,579C 2268.59,597.936 2275.09,617.436 2280,637.5C 2285.29,617.616 2291.79,598.116 2299.5,579C 2304.83,578.333 2310.17,578.333 2315.5,579C 2316.29,580.085 2316.96,581.252 2317.5,582.5C 2306.67,610.833 2295.83,639.167 2285,667.5C 2281.91,674.256 2276.74,678.423 2269.5,680C 2262.83,680.667 2256.17,680.667 2249.5,680C 2249,679.5 2248.5,679 2248,678.5C 2247.33,674.5 2247.33,670.5 2248,666.5C 2248.5,666 2249,665.5 2249.5,665C 2254.87,664.597 2260.2,663.93 2265.5,663C 2267.91,660.438 2269.58,657.438 2270.5,654C 2260.88,630.302 2251.54,606.469 2242.5,582.5C 2243.18,581.14 2243.85,579.807 2244.5,578.5 Z"/></g>
<g><path style="opacity:0.963" fill="#000000" d="M 2495.5,598.5 C 2537.1,595.448 2559.77,614.615 2563.5,656C 2560.08,697.211 2537.75,716.211 2496.5,713C 2473.75,708.919 2459.25,695.752 2453,673.5C 2446.93,648.94 2452.76,627.773 2470.5,610C 2478.17,604.495 2486.5,600.661 2495.5,598.5 Z M 2501.5,623.5 C 2523.01,623.512 2534.35,634.345 2535.5,656C 2534.38,677.797 2523.04,688.464 2501.5,688C 2486.27,682.918 2478.61,672.252 2478.5,656C 2478.36,639.35 2486.03,628.516 2501.5,623.5 Z"/></g>
<g><path style="opacity:0.958" fill="#000000" d="M 2749.5,598.5 C 2753.18,598.335 2756.85,598.501 2760.5,599C 2761.33,599.833 2762.17,600.667 2763,601.5C 2763.67,608.5 2763.67,615.5 2763,622.5C 2761.99,624.259 2760.49,625.426 2758.5,626C 2746.89,624.85 2737.06,628.35 2729,636.5C 2726.35,640.78 2724.68,645.447 2724,650.5C 2723.96,670.231 2723.3,689.898 2722,709.5C 2721.1,710.701 2719.93,711.535 2718.5,712C 2711.42,712.884 2704.42,712.551 2697.5,711C 2696.87,710.25 2696.37,709.416 2696,708.5C 2695.33,673.5 2695.33,638.5 2696,603.5C 2696.5,601.667 2697.67,600.5 2699.5,600C 2721.03,594.345 2727.69,601.511 2719.5,621.5C 2719.83,622.167 2720.17,622.833 2720.5,623.5C 2724.22,616.941 2728.55,610.775 2733.5,605C 2738.57,601.928 2743.9,599.762 2749.5,598.5 Z"/></g>
<g><path style="opacity:0.953" fill="#000000" d="M 2962.5,598.5 C 2966.18,598.335 2969.85,598.501 2973.5,599C 2974.42,599.374 2975.25,599.874 2976,600.5C 2977.59,607.392 2977.92,614.392 2977,621.5C 2976.17,623.667 2974.67,625.167 2972.5,626C 2961.26,625.096 2951.43,628.262 2943,635.5C 2939.3,641.292 2937.3,647.626 2937,654.5C 2936.67,672.5 2936.33,690.5 2936,708.5C 2934.99,710.259 2933.49,711.426 2931.5,712C 2925.5,712.667 2919.5,712.667 2913.5,712C 2911.33,711.167 2909.83,709.667 2909,707.5C 2908.33,673.167 2908.33,638.833 2909,604.5C 2909.83,602.333 2911.33,600.833 2913.5,600C 2935.28,594.264 2941.62,601.431 2932.5,621.5C 2932.83,622.5 2933.5,623.167 2934.5,623.5C 2937.75,616.069 2942.41,609.569 2948.5,604C 2953.02,601.445 2957.68,599.612 2962.5,598.5 Z"/></g>
<g><path style="opacity:0.968" fill="#000000" d="M 2578.5,599.5 C 2584.84,599.334 2591.18,599.5 2597.5,600C 2598.93,600.465 2600.1,601.299 2601,602.5C 2601.13,625.522 2601.79,648.522 2603,671.5C 2605.3,684.743 2613.14,690.243 2626.5,688C 2641.05,682.102 2649.22,671.269 2651,655.5C 2651.03,637.743 2651.69,620.076 2653,602.5C 2653.9,601.299 2655.07,600.465 2656.5,600C 2659.5,599.833 2662.5,599.667 2665.5,599.5C 2669.86,599.302 2674.02,599.968 2678,601.5C 2679.15,619.579 2679.65,637.746 2679.5,656C 2679.33,673.5 2679.17,691 2679,708.5C 2678.69,709.308 2678.19,709.975 2677.5,710.5C 2652.36,717.865 2645.36,709.699 2656.5,686C 2655.97,685.308 2655.31,684.808 2654.5,684.5C 2650.02,691.928 2644.69,698.762 2638.5,705C 2625.17,714.378 2610.83,716.044 2595.5,710C 2583.93,703.082 2577.1,692.916 2575,679.5C 2574.33,653.833 2574.33,628.167 2575,602.5C 2576.15,601.364 2577.31,600.364 2578.5,599.5 Z"/></g>
</svg>
